<svg xmlns="http://www.w3.org/2000/svg" viewBox="0 0 640 360" width="640" height="360" role="img" aria-label="Requests per second over a day">
<rect width="640" height="360" rx="10" fill="#2b2d30"/>
<text x="24" y="36" fill="#dfe1e5" font-size="16" font-weight="600" font-family="Inter, system-ui, sans-serif">Requests per second over a day</text>
<line x1="70" x2="610" y1="300.0" y2="300.0" stroke="#393b40"/>
<text x="60" y="304.0" fill="#9da0a8" font-size="11" text-anchor="end" font-family="Inter, system-ui, sans-serif">0</text>
<line x1="70" x2="610" y1="231.4" y2="231.4" stroke="#393b40"/>
<text x="60" y="235.4" fill="#9da0a8" font-size="11" text-anchor="end" font-family="Inter, system-ui, sans-serif">200</text>
<line x1="70" x2="610" y1="162.9" y2="162.9" stroke="#393b40"/>
<text x="60" y="166.9" fill="#9da0a8" font-size="11" text-anchor="end" font-family="Inter, system-ui, sans-serif">400</text>
<line x1="70" x2="610" y1="94.3" y2="94.3" stroke="#393b40"/>
<text x="60" y="98.3" fill="#9da0a8" font-size="11" text-anchor="end" font-family="Inter, system-ui, sans-serif">600</text>
<polygon points="70,300 70,258.9 115,269.1 160,276.0 205,272.6 250,238.3 295,156.0 340,90.9 385,77.1 430,101.1 475,87.4 520,114.9 565,186.9 610,245.1 610,300" fill="#5fb865" fill-opacity="0.15"/>
<polyline points="70,258.9 115,269.1 160,276.0 205,272.6 250,238.3 295,156.0 340,90.9 385,77.1 430,101.1 475,87.4 520,114.9 565,186.9 610,245.1" fill="none" stroke="#5fb865" stroke-width="2.5" stroke-linejoin="round"/>
<text x="70" y="322" fill="#9da0a8" font-size="11" text-anchor="middle" font-family="Inter, system-ui, sans-serif">00:00</text>
<text x="205" y="322" fill="#9da0a8" font-size="11" text-anchor="middle" font-family="Inter, system-ui, sans-serif">06:00</text>
<text x="340" y="322" fill="#9da0a8" font-size="11" text-anchor="middle" font-family="Inter, system-ui, sans-serif">12:00</text>
<text x="475" y="322" fill="#9da0a8" font-size="11" text-anchor="middle" font-family="Inter, system-ui, sans-serif">18:00</text>
<text x="610" y="322" fill="#9da0a8" font-size="11" text-anchor="middle" font-family="Inter, system-ui, sans-serif">24:00</text>
</svg>
